<svg xmlns="http://www.w3.org/2000/svg" aria-hidden="true" style="position:absolute;width:0;height:0;overflow:hidden">
  <defs>
    <symbol id="exit" viewBox="0 0 32 32">
      <path d="M32 3.223 28.777 0 16 12.777 3.223 0 0 3.223 12.777 16 0 28.777 3.223 32 16 19.223 28.777 32 32 28.777 19.223 16 32 3.223z"/>
    </symbol>
    <symbol id="smartphone" viewBox="0 0 20 32">
      <path d="M17 0H3C1.346 0 0 1.346 0 3v26c0 1.654 1.346 3 3 3h14c1.654 0 3-1.346 3-3V3c0-1.654-1.346-3-3-3zM3 2h14a1 1 0 0 1 1 1v21H2V3a1 1 0 0 1 1-1zm14 28H3a1 1 0 0 1-1-1v-3h16v3a1 1 0 0 1-1 1z"/>
      <path d="M4.708 27.478a.889.889 0 0 1 .001 1.319l-.001.001a1.048 1.048 0 0 1-1.417 0l.001.001a.889.889 0 0 1-.001-1.319l.001-.001a1.048 1.048 0 0 1 1.417 0l-.001-.001z"/>
    </symbol>
    <symbol id="linkedin" viewBox="0 0 32 32">
      <path d="M31.992 32H32V20.262c0-5.741-1.237-10.163-7.947-10.163-3.227 0-5.392 1.77-6.277 3.45h-.093v-2.914h-6.365v21.363h6.627V21.42c0-2.786.528-5.48 3.978-5.48 3.398 0 3.448 3.179 3.448 5.658V32h6.621zM.528 10.635h6.635V32H.528V10.635zM3.843 0A3.843 3.843 0 0 0 0 3.843c0 2.12 1.722 3.878 3.843 3.878 2.12 0 3.842-1.757 3.842-3.878S5.965.002 3.844 0z"/>
    </symbol>
    <symbol id="konvert" viewBox="0 0 43 32">
      <path d="M38.667 0H4C1.795 0 0 1.795 0 4v24c0 2.205 1.795 4 4 4h34.667c2.205 0 4-1.795 4-4V4c0-2.205-1.795-4-4-4zm0 2.667c.181 0 .355.037.512.104L21.334 18.238 3.489 2.771c.151-.065.327-.104.512-.104h34.667zm0 26.666H4A1.333 1.333 0 0 1 2.667 28V5.587l17.792 15.421c.233.203.539.327.875.327s.642-.124.876-.328l-.002.001L40 5.587V28c0 .736-.597 1.333-1.333 1.333z"/>
    </symbol>
    <symbol id="instagram" viewBox="0 0 32 32">
      <path d="M31.968 9.408c-.074-1.701-.349-2.869-.742-3.882a7.839 7.839 0 0 0-1.85-2.837l-.001-.001A7.906 7.906 0 0 0 26.597.861l-.054-.018C25.524.449 24.362.176 22.661.101 20.949.019 20.405 0 16.059 0c-4.344 0-4.888.019-6.595.094-1.699.074-2.869.349-3.88.742a7.847 7.847 0 0 0-2.839 1.85l-.001.001A7.9 7.9 0 0 0 .919 5.465l-.018.054C.506 6.538.232 7.7.157 9.401c-.082 1.712-.101 2.256-.101 6.602 0 4.344.019 4.888.094 6.595.075 1.701.35 2.869.744 3.882a7.915 7.915 0 0 0 1.849 2.837l.001.001c.8.813 1.77 1.443 2.832 1.843 1.019.395 2.182.67 3.882.744 1.707.075 2.251.094 6.595.094 4.346 0 4.89-.019 6.595-.094 1.701-.074 2.869-.349 3.882-.742a8.237 8.237 0 0 0 4.664-4.628l.019-.055c.394-1.019.669-2.182.744-3.882.075-1.707.093-2.251.093-6.595s-.006-4.888-.08-6.595zm-2.88 13.066c-.07 1.563-.333 2.406-.55 2.97a5.341 5.341 0 0 1-3.004 3.024l-.036.012c-.56.219-1.411.482-2.968.55-1.688.075-2.194.094-6.464.094-4.269 0-4.782-.019-6.464-.094-1.563-.069-2.406-.331-2.97-.55a4.953 4.953 0 0 1-1.836-1.192l-.001-.001a4.978 4.978 0 0 1-1.184-1.803L3.6 25.45c-.218-.563-.48-1.413-.549-2.97-.075-1.688-.094-2.195-.094-6.464 0-4.27.019-4.784.094-6.464.069-1.563.331-2.406.549-2.97a4.897 4.897 0 0 1 1.198-1.837l.002-.002a4.972 4.972 0 0 1 1.806-1.182l.034-.011c.56-.219 1.411-.48 2.968-.55 1.688-.074 2.195-.093 6.464-.093 4.275 0 4.782.019 6.464.093 1.563.069 2.406.331 2.97.55a4.91 4.91 0 0 1 1.837 1.194c.531.52.938 1.144 1.195 1.84.218.56.48 1.411.549 2.968.075 1.688.094 2.194.094 6.464 0 4.269-.019 4.768-.094 6.458z"/>
      <path d="M16.059 7.782a8.223 8.223 0 0 0-8.219 8.221 8.223 8.223 0 0 0 16.442.008v-.009a8.223 8.223 0 0 0-8.221-8.221zm0 13.552a5.333 5.333 0 0 1 .001-10.666h.001a5.334 5.334 0 1 1 0 10.668zM26.525 7.458a1.92 1.92 0 0 1-3.84 0 1.92 1.92 0 0 1 3.84 0z"/>
    </symbol>
    <symbol id="facebook" viewBox="0 0 32 32">
      <path d="M21.328 5.312h2.923V.224A36.483 36.483 0 0 0 20.143 0h-.156.008c-4.213 0-7.099 2.65-7.099 7.52V12H8.25v5.688h4.646V32h5.699V17.69h4.459l.707-5.688h-5.168V8.08c0-1.643.443-2.768 2.734-2.768z"/>
    </symbol>
    <symbol id="diagram" viewBox="0 0 32 32">
      <path fill="#2196f3" d="M14.926 14.965h1.066v4.798h-1.066v-4.798zm4.264 2.132h1.066v2.665H19.19v-2.665zm-8.529 1.599h1.066v1.066h-1.066v-1.066zm-3.198-.533h1.066v1.599H7.463v-1.599z" style="fill:var(--color3, #2196f3)"/>
      <path fill="#212121" d="M1.599 28.291h25.586a1.6 1.6 0 0 0 1.599-1.599V24.56a1.6 1.6 0 0 0-1.599-1.599h-.533V9.667l3.028-2.868a1.608 1.608 0 1 0-.742-.752l-.004-.01-2.281 2.162v-1.23a1.6 1.6 0 0 0-1.599-1.599H3.731a1.6 1.6 0 0 0-1.599 1.599v15.992h-.533A1.6 1.6 0 0 0 0 24.56v2.132a1.6 1.6 0 0 0 1.599 1.599zM30.384 4.837a.533.533 0 0 1 0 1.066.533.533 0 0 1 0-1.066zM3.198 6.969c0-.294.239-.533.533-.533h21.323c.294 0 .533.239.533.533v2.239l-1.066 1.013V8.036a.534.534 0 0 0-.534-.534H4.798a.534.534 0 0 0-.534.533v13.327c0 .294.239.533.534.533h19.189a.534.534 0 0 0 .534-.533v-9.675l1.066-1.01V22.96H3.198V6.969zm4.798 6.93h-.005a1.6 1.6 0 1 0 1.112 2.748l1.853.93a.535.535 0 0 0 .636-.122l3.939-4.432 3.872 2.902a.534.534 0 0 0 .686-.039l3.365-3.188v8.131H5.331V8.568h18.123v2.661l-3.771 3.572-3.904-2.927a.534.534 0 0 0-.718.071v.001l-3.993 4.493-1.493-.746c.011-.064.017-.128.02-.193a1.6 1.6 0 0 0-1.599-1.599zm.533 1.599a.533.533 0 0 1-1.066 0 .533.533 0 0 1 1.066 0zm3.198 8.528h5.33v.533a.533.533 0 0 1-.533.533h-4.265a.533.533 0 0 1-.533-.533v-.533zm-10.66.534c0-.294.238-.533.533-.533h9.062v.533a1.6 1.6 0 0 0 1.599 1.599h4.265a1.6 1.6 0 0 0 1.599-1.599v-.533h9.062c.294 0 .533.239.533.533v2.132a.533.533 0 0 1-.533.533H1.601a.533.533 0 0 1-.533-.533V24.56z" style="fill:var(--color4, #212121)"/>
    </symbol>
    <symbol id="clock" viewBox="0 0 32 32">
      <path fill="#212121" d="M31.296 15.301C31.295 6.849 24.441-.002 15.988 0S.685 6.855.687 15.308c.002 6.788 4.422 12.543 10.541 14.545l.108.031a.667.667 0 0 0 .529-.065.636.636 0 0 0 .283-.357l3.865-12.25a1.913 1.913 0 1 0-.852-3.63l.011-.005-5.106-5.107a.638.638 0 0 0-.902.902l5.103 5.109a1.847 1.847 0 0 0-.191.826c0 .602.283 1.137.723 1.48l.004.003-3.682 11.673C3.843 25.782.117 17.709 2.797 10.431S13.551-.573 20.829 2.108c7.278 2.681 11.004 10.754 8.323 18.032-1.345 3.581-4.003 6.406-7.374 7.938l-.088.036-.398-1.874a.639.639 0 0 0-1.05-.343l.001-.001-3.837 3.426a.637.637 0 0 0 .227 1.083l.005.001 4.899 1.563a.637.637 0 0 0 .818-.744l.001.004-.391-1.839c5.528-2.374 9.329-7.772 9.329-14.057v-.034.002zm-15.304-.637a.638.638 0 0 1 0 1.276.638.638 0 0 1 0-1.276zm2.1 14.864 2.184-1.948.603 2.84-2.787-.892z" style="fill:var(--color4, #212121)"/>
      <path fill="#2196f3" d="M15.354 3.185V4.46a.638.638 0 0 0 1.276 0V3.185a.638.638 0 1 0-1.276 0zM3.876 14.664a.638.638 0 0 0 0 1.276h1.275a.638.638 0 0 0 0-1.276H3.876zm24.232 1.275a.638.638 0 0 0 0-1.276h-1.275a.638.638 0 0 0 0 1.276h1.275z" style="fill:var(--color3, #2196f3)"/>
    </symbol>
    <symbol id="client-6" viewBox="0 0 57 32">
      <path d="M28.662 15.122c-0.223-0.325-0.33-0.71-0.304-1.097v-1.591c0-0.488 0.101-0.858 0.303-1.112s0.548-0.38 1.039-0.379c0.462 0 0.789 0.108 0.983 0.324 0.211 0.275 0.314 0.612 0.291 0.952v0.374h-0.826v-0.379c0.003-0.124-0.005-0.248-0.024-0.371-0.012-0.084-0.053-0.162-0.118-0.22-0.085-0.063-0.192-0.094-0.299-0.086-0.113-0.008-0.225 0.024-0.315 0.091-0.072 0.065-0.12 0.15-0.137 0.243-0.024 0.13-0.035 0.261-0.032 0.393v1.931c-0.013 0.186 0.023 0.373 0.106 0.542 0.041 0.057 0.098 0.103 0.165 0.131s0.14 0.039 0.213 0.030c0.106 0.008 0.211-0.023 0.292-0.087 0.067-0.063 0.111-0.146 0.123-0.235 0.019-0.128 0.028-0.257 0.026-0.387v-0.392h0.826v0.358c0.023 0.354-0.077 0.705-0.285 1-0.19 0.236-0.513 0.354-0.988 0.354s-0.834-0.126-1.038-0.388z"></path>
      <path d="M32.099 15.138c-0.209-0.248-0.313-0.608-0.313-1.086v-1.673c0-0.473 0.104-0.83 0.313-1.073s0.557-0.364 1.046-0.362c0.485 0 0.832 0.121 1.041 0.362 0.209 0.243 0.315 0.6 0.315 1.073v1.673c0 0.473-0.106 0.835-0.318 1.084s-0.557 0.374-1.038 0.374-0.836-0.126-1.046-0.372zM33.53 14.737c0.075-0.155 0.109-0.325 0.099-0.495v-2.049c0.010-0.167-0.024-0.334-0.097-0.486-0.042-0.059-0.1-0.105-0.169-0.133s-0.144-0.038-0.218-0.028c-0.074-0.010-0.15 0-0.218 0.029s-0.127 0.075-0.17 0.133c-0.075 0.152-0.109 0.318-0.099 0.486v2.058c-0.010 0.17 0.024 0.34 0.099 0.495 0.048 0.052 0.108 0.094 0.174 0.123s0.139 0.043 0.212 0.043 0.146-0.015 0.212-0.043c0.067-0.029 0.126-0.070 0.174-0.123v-0.010z"></path>
      <path d="M35.494 10.992h0.889l0.668 3.087 0.684-3.087h0.865l0.087 4.456h-0.639l-0.068-3.097-0.66 3.097h-0.513l-0.684-3.108-0.063 3.108h-0.646l0.080-4.456z"></path>
      <path d="M39.683 10.992h1.385c0.798 0 1.196 0.422 1.196 1.265 0 0.808-0.42 1.211-1.26 1.21h-0.472v1.98h-0.855l0.005-4.456zM40.866 12.897c0.084 0.010 0.17 0.003 0.251-0.021s0.156-0.065 0.219-0.119c0.098-0.15 0.141-0.327 0.123-0.503 0.004-0.136-0.009-0.272-0.041-0.405-0.012-0.044-0.034-0.086-0.063-0.122s-0.066-0.067-0.108-0.090c-0.119-0.054-0.25-0.078-0.381-0.071h-0.332v1.332h0.332z"></path>
      <path d="M43.496 10.992h0.918l0.942 4.456h-0.796l-0.186-1.027h-0.819l-0.191 1.027h-0.808l0.942-4.456zM44.281 13.905l-0.32-1.87-0.32 1.87h0.639z"></path>
      <path d="M46.117 10.992h0.598l1.145 2.542v-2.542h0.709v4.456h-0.569l-1.152-2.654v2.654h-0.733l0.002-4.456z"></path>
      <path d="M50.231 13.749l-0.952-2.751h0.802l0.581 1.767 0.545-1.767h0.785l-0.94 2.751v1.699h-0.82v-1.699z"></path>
      <path d="M29.981 17.397v0.233h-0.697v1.811h-0.292v-1.811h-0.701v-0.233h1.691z"></path>
      <path d="M32.168 19.441h-0.226c-0.023 0.001-0.046-0.006-0.063-0.019-0.017-0.012-0.030-0.028-0.038-0.047l-0.202-0.485h-0.968l-0.202 0.485c-0.006 0.020-0.016 0.039-0.031 0.055-0.018 0.014-0.040 0.020-0.063 0.019h-0.226l0.855-2.044h0.297l0.865 2.036zM30.752 18.682h0.807l-0.342-0.832c-0.025-0.063-0.046-0.127-0.063-0.193-0.012 0.039-0.022 0.076-0.032 0.108l-0.031 0.086-0.338 0.83z"></path>
      <path d="M33.641 19.24c0.054 0.003 0.107 0.003 0.161 0 0.046-0.004 0.092-0.013 0.137-0.024 0.042-0.010 0.083-0.022 0.123-0.037 0.038-0.015 0.075-0.032 0.115-0.050v-0.46h-0.342c-0.008 0-0.017-0.001-0.025-0.004s-0.015-0.007-0.021-0.013c-0.006-0.005-0.010-0.010-0.013-0.017s-0.004-0.013-0.004-0.020v-0.157h0.663v0.783c-0.054 0.037-0.111 0.069-0.171 0.097-0.061 0.028-0.124 0.052-0.19 0.070-0.070 0.019-0.141 0.034-0.214 0.042-0.083 0.009-0.166 0.013-0.25 0.013-0.147 0.001-0.294-0.025-0.431-0.076-0.128-0.049-0.244-0.121-0.342-0.214-0.095-0.093-0.17-0.203-0.22-0.324-0.054-0.135-0.081-0.279-0.079-0.424-0.002-0.146 0.024-0.29 0.077-0.427 0.049-0.121 0.124-0.231 0.22-0.324 0.098-0.092 0.214-0.164 0.342-0.212 0.146-0.052 0.302-0.078 0.458-0.076 0.080-0 0.159 0.006 0.238 0.018 0.069 0.011 0.138 0.028 0.203 0.052 0.060 0.021 0.117 0.048 0.171 0.081 0.052 0.032 0.102 0.068 0.149 0.107l-0.082 0.126c-0.006 0.012-0.016 0.021-0.028 0.028s-0.025 0.011-0.039 0.011c-0.019-0.001-0.037-0.006-0.053-0.016-0.026-0.013-0.053-0.029-0.084-0.049-0.036-0.022-0.075-0.040-0.114-0.055-0.051-0.019-0.104-0.035-0.157-0.045-0.072-0.012-0.144-0.018-0.217-0.018-0.113-0.001-0.225 0.018-0.33 0.057-0.095 0.036-0.181 0.091-0.251 0.162-0.071 0.073-0.125 0.16-0.159 0.254-0.076 0.221-0.076 0.46 0 0.681 0.037 0.096 0.096 0.184 0.171 0.257 0.070 0.070 0.155 0.125 0.25 0.162 0.109 0.035 0.224 0.049 0.338 0.040z"></path>
      <path d="M36.365 19.207h0.933v0.233h-1.219v-2.044h0.292l-0.007 1.811z"></path>
      <path d="M38.27 19.44h-0.292v-2.044h0.292v2.044z"></path>
      <path d="M39.357 17.406c0.017 0.009 0.032 0.022 0.044 0.037l1.249 1.541c-0.002-0.024-0.002-0.049 0-0.073 0-0.023 0-0.045 0-0.066v-1.456h0.255v2.052h-0.147c-0.022 0.002-0.044-0.002-0.063-0.011-0.018-0.010-0.033-0.023-0.046-0.039l-1.248-1.539c0 0.024 0 0.047 0 0.070s0 0.044 0 0.063v1.456h-0.244v-2.044h0.152c0.016 0 0.033 0.003 0.048 0.010z"></path>
      <path d="M43.057 17.397v0.225h-1.036v0.675h0.839v0.217h-0.839v0.698h1.036v0.225h-1.337v-2.039h1.337z"></path>
      <path d="M12.429 4.775l12.979 3.489v12.225l-12.979-3.487v-12.227zM11.596 3.733v13.863l14.642 3.937v-13.861l-14.642-3.939z"></path>
      <path d="M19.443 27.968l-14.643-3.94v-13.861l14.643 3.939v13.863z"></path>
      <path d="M11.839 4.618l12.809 3.445-5.448 5.159-12.811-3.447 5.449-5.157zM11.596 3.733l-6.796 6.434 14.643 3.938 6.794-6.434-14.642-3.938z"></path>
      <path d="M20.267 27.188l5.971-5.654-5.971-1.607v7.26z"></path>
    </symbol>
    <symbol id="client-5" viewBox="0 0 57 32">
      <path d="M14.66 24.148c0.123 0.152 0.188 0.343 0.185 0.539 0.006 0.128-0.016 0.255-0.066 0.373s-0.125 0.223-0.22 0.308c-0.238 0.181-0.533 0.269-0.831 0.249h-1.461v-3.416h1.431c0.283-0.019 0.563 0.061 0.793 0.227 0.092 0.078 0.166 0.176 0.214 0.287s0.070 0.232 0.064 0.352c0.008 0.188-0.051 0.374-0.166 0.522-0.111 0.136-0.265 0.23-0.435 0.267 0.194 0.036 0.369 0.139 0.494 0.292zM12.946 23.632h0.612c0.139 0.010 0.277-0.030 0.389-0.113 0.046-0.042 0.082-0.094 0.104-0.152s0.032-0.12 0.027-0.182c0.004-0.062-0.005-0.124-0.028-0.181s-0.057-0.11-0.102-0.152c-0.115-0.086-0.258-0.127-0.401-0.115h-0.602v0.896zM14.007 24.942c0.049-0.043 0.088-0.096 0.113-0.157s0.036-0.125 0.032-0.191c0.004-0.066-0.008-0.132-0.033-0.192s-0.065-0.115-0.115-0.158c-0.12-0.089-0.267-0.133-0.416-0.124h-0.642v0.94h0.65c0.146 0.008 0.291-0.033 0.411-0.118z"></path>
      <path d="M17.585 25.617l-0.796-1.335h-0.299v1.335h-0.685v-3.416h1.296c0.327-0.023 0.65 0.081 0.902 0.29 0.181 0.185 0.291 0.43 0.308 0.689s-0.057 0.516-0.212 0.725c-0.16 0.184-0.378 0.307-0.618 0.347l0.848 1.365h-0.745zM16.49 23.816h0.56c0.389 0 0.583-0.172 0.583-0.517 0.004-0.070-0.007-0.141-0.031-0.207s-0.063-0.126-0.112-0.177c-0.123-0.103-0.281-0.152-0.44-0.139h-0.567l0.007 1.040z"></path>
      <path d="M21.328 24.929h-1.365l-0.241 0.688h-0.718l1.253-3.378h0.776l1.248 3.378h-0.718l-0.236-0.688zM21.145 24.412l-0.499-1.442-0.499 1.442h0.997z"></path>
      <path d="M26.014 25.617h-0.68l-1.524-2.323v2.323h-0.678v-3.416h0.678l1.524 2.336v-2.336h0.68v3.416z"></path>
      <path d="M29.893 24.799c-0.141 0.258-0.355 0.468-0.615 0.602-0.296 0.15-0.624 0.224-0.956 0.215h-1.21v-3.416h1.21c0.331-0.009 0.659 0.063 0.956 0.21 0.26 0.132 0.475 0.339 0.615 0.596 0.14 0.278 0.213 0.585 0.213 0.896s-0.073 0.618-0.213 0.896zM29.115 24.717c0.194-0.227 0.301-0.516 0.301-0.815s-0.107-0.588-0.301-0.815c-0.235-0.206-0.54-0.31-0.851-0.29h-0.472v2.211h0.472c0.311 0.020 0.616-0.085 0.851-0.29z"></path>
      <path d="M21.754 3.2c0 0 8.774 3.326 8.588 8.139v8.14c0 0-8.768-3.328-8.585-8.14l-0.003-8.139z"></path>
      <path d="M38.159 17.573c1.657-1.145 3.574-1.854 5.575-2.063v-2.548c-2.305 0.892-4.261 2.51-5.575 4.611z"></path>
      <path d="M37.163 18.341c1.356-2.742 3.708-4.858 6.57-5.912v-7.343c0 0-12.496 4.738-12.231 11.591v11.59c0 0 0.557-0.212 1.433-0.609 0-0.37 0-0.744 0.040-1.12 0.259-3.182 1.765-6.13 4.188-8.197z"></path>
      <path d="M35.975 22.646c0.066-0.804 0.212-1.599 0.437-2.373-1.509 1.785-2.423 4-2.613 6.333-0.018 0.22-0.028 0.441-0.033 0.668 0.71-0.342 1.536-0.769 2.403-1.272-0.221-1.104-0.287-2.234-0.194-3.356z"></path>
      <path d="M36.472 22.688c-0.083 1.015-0.031 2.037 0.155 3.039 3.414-2.051 7.25-5.22 7.102-9.050v-0.334c-2.439 0.274-4.721 1.345-6.495 3.047-0.415 1.055-0.672 2.166-0.761 3.298z"></path>
    </symbol>
    <symbol id="client-4" viewBox="0 0 57 32">
      <path d="M13.548 11.643h-0.001c-1.207 0-2.185 0.953-2.185 2.129v0.001c0 1.176 0.978 2.129 2.185 2.129h0.001c1.207 0 2.185-0.953 2.185-2.129v-0.001c0-1.176-0.978-2.129-2.185-2.129z"></path>
      <path d="M29.673 10.962c-0.003-1.633-0.671-3.198-1.855-4.353s-2.791-1.805-4.467-1.809v0c-1.676 0.003-3.283 0.653-4.469 1.808s-1.853 2.721-1.856 4.354v9.006c0 0 12.646-1.373 12.647-9.004v-0.001z"></path>
      <path d="M6.933 22.924c0.003 1.136 0.468 2.225 1.292 3.029s1.942 1.257 3.108 1.26c1.166-0.003 2.283-0.456 3.107-1.259s1.289-1.892 1.292-3.028v-6.266c0 0-8.799 0.956-8.799 6.265zM11.333 24.047c-0.228 0-0.451-0.066-0.64-0.189s-0.337-0.299-0.424-0.504-0.11-0.431-0.066-0.649c0.044-0.218 0.154-0.418 0.315-0.575s0.366-0.264 0.59-0.307 0.455-0.021 0.666 0.064c0.21 0.085 0.39 0.229 0.517 0.413s0.194 0.402 0.194 0.624c0.001 0.148-0.029 0.294-0.086 0.431s-0.142 0.261-0.249 0.366c-0.107 0.105-0.234 0.188-0.374 0.244s-0.29 0.086-0.442 0.086v-0.004z"></path>
      <path d="M20.314 23.35h-0.9v0.93h-0.469v-2.275h1.481v0.38h-1.012v0.588h0.9v0.378zM22.567 23.194c0 0.224-0.040 0.42-0.119 0.589s-0.193 0.299-0.341 0.391c-0.147 0.092-0.316 0.137-0.506 0.137-0.189 0-0.357-0.045-0.505-0.136s-0.262-0.22-0.344-0.387c-0.081-0.169-0.122-0.363-0.123-0.581v-0.112c0-0.224 0.040-0.421 0.12-0.591 0.081-0.171 0.195-0.302 0.342-0.392 0.148-0.092 0.317-0.137 0.506-0.137s0.358 0.046 0.505 0.137c0.148 0.091 0.262 0.221 0.342 0.392 0.081 0.17 0.122 0.366 0.122 0.589v0.102zM22.092 23.091c0-0.238-0.043-0.42-0.128-0.544s-0.207-0.186-0.366-0.186c-0.157 0-0.279 0.061-0.364 0.184-0.085 0.122-0.129 0.301-0.13 0.538v0.111c0 0.232 0.043 0.412 0.128 0.541s0.208 0.192 0.369 0.192c0.157 0 0.278-0.061 0.363-0.184 0.084-0.124 0.127-0.304 0.128-0.541v-0.111zM24.088 23.683c0-0.089-0.031-0.156-0.094-0.203-0.063-0.048-0.175-0.098-0.337-0.15-0.163-0.053-0.291-0.105-0.386-0.156-0.258-0.14-0.387-0.328-0.387-0.564 0-0.123 0.034-0.232 0.103-0.328 0.070-0.097 0.169-0.172 0.298-0.227 0.13-0.054 0.276-0.081 0.438-0.081 0.163 0 0.307 0.030 0.434 0.089 0.127 0.058 0.226 0.141 0.295 0.248s0.106 0.229 0.106 0.366h-0.469c0-0.104-0.033-0.185-0.098-0.242-0.066-0.058-0.158-0.088-0.277-0.088-0.115 0-0.204 0.024-0.267 0.073-0.064 0.048-0.095 0.111-0.095 0.191 0 0.074 0.037 0.136 0.111 0.186 0.075 0.050 0.185 0.097 0.33 0.141 0.267 0.080 0.461 0.18 0.583 0.298s0.183 0.267 0.183 0.444c0 0.197-0.075 0.352-0.223 0.464-0.149 0.111-0.349 0.167-0.602 0.167-0.175 0-0.334-0.032-0.478-0.095-0.144-0.065-0.254-0.153-0.33-0.264s-0.113-0.241-0.113-0.388h0.47c0 0.251 0.15 0.377 0.45 0.377 0.111 0 0.198-0.022 0.261-0.067 0.063-0.046 0.094-0.109 0.094-0.191zM26.589 22.384h-0.697v1.895h-0.469v-1.895h-0.687v-0.38h1.853v0.38zM28.227 23.294h-0.9v0.609h1.056v0.377h-1.525v-2.275h1.522v0.38h-1.053v0.542h0.9v0.367zM29.5 23.447h-0.373v0.833h-0.469v-2.275h0.845c0.269 0 0.476 0.060 0.622 0.18s0.219 0.289 0.219 0.508c0 0.155-0.034 0.285-0.102 0.389-0.067 0.103-0.168 0.185-0.305 0.247l0.492 0.93v0.022h-0.503l-0.427-0.833zM29.127 23.067h0.378c0.118 0 0.209-0.030 0.273-0.089 0.065-0.060 0.097-0.143 0.097-0.248 0-0.107-0.031-0.192-0.092-0.253-0.060-0.061-0.154-0.092-0.28-0.092h-0.377v0.683zM31.967 23.478v0.802h-0.469v-2.275h0.887c0.171 0 0.321 0.031 0.45 0.094s0.23 0.152 0.3 0.267c0.070 0.115 0.105 0.245 0.105 0.392 0 0.223-0.077 0.399-0.23 0.528-0.152 0.128-0.363 0.192-0.633 0.192h-0.411zM31.967 23.098h0.419c0.124 0 0.218-0.029 0.283-0.088 0.066-0.058 0.098-0.142 0.098-0.25 0-0.111-0.033-0.202-0.098-0.27s-0.156-0.104-0.272-0.106h-0.43v0.714zM34.933 23.294h-0.9v0.609h1.056v0.377h-1.525v-2.275h1.522v0.38h-1.053v0.542h0.9v0.367zM37.108 22.384h-0.697v1.895h-0.469v-1.895h-0.688v-0.38h1.853v0.38zM38.746 23.294h-0.9v0.609h1.056v0.377h-1.525v-2.275h1.522v0.38h-1.053v0.542h0.9v0.367zM40.019 23.447h-0.373v0.833h-0.469v-2.275h0.845c0.269 0 0.476 0.060 0.622 0.18s0.219 0.289 0.219 0.508c0 0.155-0.034 0.285-0.102 0.389-0.067 0.103-0.168 0.185-0.305 0.247l0.492 0.93v0.022h-0.503l-0.427-0.833zM39.646 23.067h0.378c0.118 0 0.209-0.030 0.273-0.089 0.065-0.060 0.097-0.143 0.097-0.248 0-0.107-0.031-0.192-0.092-0.253-0.060-0.061-0.154-0.092-0.28-0.092h-0.377v0.683zM42.4 23.683c0-0.089-0.031-0.156-0.094-0.203-0.063-0.048-0.175-0.098-0.337-0.15-0.163-0.053-0.291-0.105-0.386-0.156-0.258-0.14-0.388-0.328-0.388-0.564 0-0.123 0.034-0.232 0.103-0.328 0.070-0.097 0.169-0.172 0.298-0.227 0.13-0.054 0.276-0.081 0.438-0.081 0.163 0 0.307 0.030 0.434 0.089 0.127 0.058 0.225 0.141 0.295 0.248s0.106 0.229 0.106 0.366h-0.469c0-0.104-0.033-0.185-0.098-0.242-0.066-0.058-0.158-0.088-0.277-0.088-0.115 0-0.204 0.024-0.267 0.073-0.064 0.048-0.095 0.111-0.095 0.191 0 0.074 0.037 0.136 0.111 0.186 0.075 0.050 0.185 0.097 0.33 0.141 0.267 0.080 0.461 0.18 0.583 0.298s0.183 0.267 0.183 0.444c0 0.197-0.074 0.352-0.223 0.464-0.149 0.111-0.349 0.167-0.602 0.167-0.175 0-0.334-0.032-0.478-0.095-0.144-0.065-0.254-0.153-0.33-0.264-0.075-0.111-0.112-0.241-0.112-0.388h0.47c0 0.251 0.15 0.377 0.45 0.377 0.111 0 0.198-0.022 0.261-0.067 0.063-0.046 0.094-0.109 0.094-0.191z"></path>
    </symbol>
    <symbol id="client-3" viewBox="0 0 57 32">
      <path d="M20.451 27.090c0.008 0 0.016 0.002 0.023 0.005s0.014 0.008 0.019 0.013l0.11 0.115c-0.085 0.093-0.191 0.168-0.309 0.218-0.138 0.055-0.288 0.082-0.438 0.078-0.141 0.003-0.281-0.022-0.412-0.073-0.118-0.047-0.223-0.117-0.31-0.207-0.088-0.093-0.157-0.201-0.2-0.319-0.048-0.132-0.072-0.27-0.070-0.409-0.002-0.14 0.024-0.279 0.075-0.41 0.048-0.119 0.12-0.227 0.213-0.319 0.094-0.090 0.206-0.161 0.329-0.208 0.135-0.050 0.279-0.075 0.424-0.073 0.135-0.003 0.268 0.020 0.394 0.067 0.109 0.045 0.208 0.107 0.295 0.184l-0.092 0.123c-0.006 0.009-0.014 0.016-0.023 0.022-0.011 0.007-0.024 0.010-0.037 0.009-0.014-0.001-0.028-0.005-0.040-0.013l-0.049-0.033-0.069-0.042c-0.030-0.016-0.060-0.029-0.092-0.041-0.041-0.014-0.082-0.025-0.125-0.033-0.054-0.009-0.108-0.014-0.163-0.013-0.104-0.001-0.208 0.017-0.305 0.055-0.090 0.035-0.171 0.087-0.239 0.154-0.068 0.071-0.121 0.155-0.155 0.246-0.039 0.104-0.058 0.214-0.056 0.324-0.002 0.112 0.017 0.224 0.056 0.329 0.034 0.090 0.085 0.173 0.152 0.244 0.063 0.066 0.141 0.118 0.228 0.152 0.090 0.035 0.186 0.053 0.283 0.052 0.056 0.001 0.112-0.003 0.167-0.010 0.090-0.011 0.177-0.040 0.254-0.088 0.038-0.024 0.075-0.051 0.108-0.081 0.014-0.013 0.033-0.020 0.052-0.021z"></path>
      <path d="M23.62 26.512c0.002 0.139-0.023 0.276-0.074 0.407-0.045 0.118-0.115 0.226-0.207 0.316s-0.202 0.161-0.324 0.207c-0.269 0.098-0.566 0.098-0.834 0-0.121-0.047-0.231-0.118-0.322-0.208-0.091-0.092-0.162-0.2-0.208-0.319-0.099-0.263-0.099-0.551 0-0.814 0.047-0.119 0.118-0.228 0.208-0.32 0.092-0.087 0.202-0.155 0.322-0.2 0.268-0.099 0.566-0.099 0.834 0 0.122 0.047 0.232 0.118 0.324 0.208 0.090 0.091 0.161 0.198 0.207 0.315 0.051 0.131 0.076 0.27 0.074 0.409zM23.332 26.512c0.002-0.111-0.015-0.221-0.052-0.327-0.031-0.090-0.081-0.173-0.147-0.244-0.064-0.067-0.144-0.12-0.232-0.154-0.195-0.071-0.411-0.071-0.606 0-0.088 0.034-0.167 0.087-0.232 0.154-0.067 0.071-0.117 0.154-0.148 0.244-0.070 0.213-0.070 0.441 0 0.654 0.031 0.090 0.081 0.174 0.148 0.244 0.064 0.067 0.144 0.119 0.232 0.153 0.196 0.070 0.411 0.070 0.606 0 0.088-0.034 0.167-0.086 0.232-0.153 0.066-0.071 0.116-0.154 0.147-0.244 0.037-0.105 0.054-0.216 0.052-0.327z"></path>
      <path d="M25.782 26.855l0.029 0.073c0.011-0.026 0.021-0.050 0.032-0.073 0.011-0.025 0.022-0.049 0.036-0.072l0.701-1.214c0.014-0.021 0.026-0.034 0.040-0.038 0.019-0.005 0.038-0.008 0.058-0.006h0.207v1.975h-0.246v-1.452c0-0.018 0-0.039 0-0.061-0.001-0.023-0.001-0.045 0-0.068l-0.705 1.231c-0.009 0.018-0.023 0.034-0.041 0.045s-0.039 0.017-0.060 0.016h-0.040c-0.021 0-0.042-0.005-0.060-0.016s-0.032-0.027-0.041-0.045l-0.726-1.239c0 0.024 0 0.047 0 0.071s0 0.044 0 0.063v1.452h-0.237v-1.971h0.207c0.019-0.001 0.039 0.001 0.058 0.006 0.017 0.008 0.031 0.021 0.038 0.038l0.716 1.215c0.014 0.022 0.026 0.046 0.036 0.071z"></path>
      <path d="M28.42 26.757v0.74h-0.274v-1.972h0.612c0.116-0.002 0.231 0.012 0.342 0.043 0.089 0.024 0.171 0.066 0.241 0.123 0.061 0.053 0.108 0.12 0.137 0.193 0.032 0.080 0.048 0.166 0.047 0.252 0.001 0.087-0.016 0.172-0.051 0.252-0.033 0.076-0.084 0.143-0.148 0.197-0.070 0.059-0.153 0.104-0.243 0.131-0.107 0.032-0.218 0.048-0.331 0.046l-0.332-0.005zM28.42 26.545h0.332c0.072 0.001 0.144-0.009 0.213-0.030 0.057-0.018 0.109-0.047 0.154-0.085 0.041-0.036 0.073-0.081 0.093-0.131 0.022-0.053 0.034-0.109 0.033-0.166 0.003-0.055-0.006-0.11-0.028-0.161s-0.054-0.097-0.096-0.135c-0.105-0.078-0.236-0.116-0.369-0.106h-0.332v0.813z"></path>
      <path d="M32.107 27.499h-0.217c-0.022 0.001-0.043-0.006-0.060-0.018-0.016-0.012-0.028-0.028-0.036-0.046l-0.187-0.477h-0.937l-0.193 0.477c-0.007 0.017-0.019 0.033-0.034 0.044-0.017 0.013-0.039 0.020-0.062 0.020h-0.217l0.823-1.975h0.285l0.834 1.975zM30.749 26.766h0.774l-0.326-0.804c-0.025-0.060-0.046-0.122-0.062-0.186l-0.032 0.103c-0.010 0.031-0.021 0.060-0.030 0.084l-0.324 0.802z"></path>
      <path d="M33.292 25.534c0.016 0.009 0.031 0.021 0.041 0.035l1.2 1.489c0-0.024 0-0.047 0-0.069s0-0.044 0-0.065v-1.398h0.246v1.975h-0.137c-0.019 0.001-0.039-0.003-0.056-0.012-0.017-0.009-0.032-0.022-0.044-0.037l-1.199-1.487c0.001 0.023 0.001 0.045 0 0.068 0 0.022 0 0.042 0 0.060v1.408h-0.246v-1.975h0.145c0.017-0 0.034 0.003 0.049 0.009z"></path>
      <path d="M36.801 26.714v0.784h-0.274v-0.784l-0.759-1.189h0.246c0.021-0.001 0.042 0.005 0.059 0.017 0.015 0.013 0.027 0.028 0.037 0.044l0.475 0.767c0.019 0.033 0.036 0.063 0.049 0.091s0.025 0.056 0.034 0.084l0.036-0.085c0.013-0.031 0.029-0.061 0.047-0.090l0.468-0.772c0.010-0.015 0.022-0.029 0.036-0.042 0.016-0.014 0.037-0.021 0.059-0.020h0.248l-0.76 1.195z"></path>
      <path d="M25.646 22.21c0.119 0.014 0.24 0.026 0.362 0.037 1.851-0.789 3.417-2.080 4.502-3.712s1.641-3.533 1.599-5.464l-2.040-1.943c0.415 2.056 0.221 4.182-0.56 6.14s-2.118 3.669-3.862 4.944z"></path>
      <path d="M24.917 22.12l0.055 0.010c1.864-1.27 3.284-3.043 4.079-5.091s0.926-4.275 0.377-6.394l-2.905-2.768c1.175 2.275 1.648 4.822 1.364 7.343s-1.314 4.914-2.969 6.9z"></path>
      <path d="M34.771 15.353c-0.494 2.122-1.692 4.036-3.419 5.458-0.504 0.417-1.048 0.789-1.624 1.111 1.406-0.394 2.697-1.089 3.776-2.034s1.915-2.112 2.445-3.413l-1.178-1.121z"></path>
      <path d="M34.309 15.040l-1.678-1.598c-0.032 1.822-0.576 3.603-1.575 5.158s-2.417 2.826-4.106 3.681h0.008c0.376-0 0.752-0.022 1.126-0.064 1.579-0.614 2.973-1.59 4.059-2.843s1.83-2.741 2.165-4.334z"></path>
      <path d="M25.16 6.71l-2.002-1.909c-1.789 0.659-3.328 1.817-4.415 3.322s-1.672 3.289-1.677 5.117v0c0.007 2.019 0.72 3.979 2.027 5.568s3.133 2.718 5.19 3.208c1.836-2.131 2.91-4.764 3.068-7.516s-0.61-5.481-2.191-7.79z"></path>
      <path d="M38.933 14.746c-0.007-2.396-1.009-4.692-2.788-6.386s-4.188-2.649-6.703-2.656c-1.162-0.001-2.314 0.203-3.398 0.603l12.254 11.675c0.42-1.032 0.635-2.129 0.634-3.236z"></path>
    </symbol>
    <symbol id="client-2" viewBox="0 0 57 32">
      <path d="M26.654 3.698h0.073c0.135 0 0.281 0.014 0.425 0.026 0.636 0.045 1.268 0.14 1.889 0.285v-1.527c-0.64-0.16-1.292-0.264-1.95-0.311-0.25-0.019-0.515-0.031-0.788-0.038h-0.228c-1.32 0.005-2.634 0.174-3.913 0.504-1.456 0.363-2.854 0.932-4.151 1.689v15.145c1.249-0.679 2.579-1.197 3.957-1.542 1.088-0.278 2.201-0.448 3.322-0.51h0.045c0.188-0.009 0.375-0.015 0.568-0.016v-1.551c-1.457 0.019-2.906 0.211-4.317 0.574-0.522 0.136-1.027 0.282-1.5 0.445l-0.54 0.183v-11.809l0.231-0.111c1.761-0.835 3.665-1.321 5.609-1.431 0.016-0.001 0.032-0.001 0.049 0 0.215-0.011 0.43-0.016 0.642-0.016h0.243c0.112 0.003 0.224 0.005 0.336 0.012z"></path>
      <path d="M30.459 5.297c-0.355 0-0.706-0.012-1.044-0.038-0.405-0.030-0.82-0.079-1.214-0.145-0.24-0.041-0.476-0.090-0.706-0.142v14.971c0.971 0.24 1.968 0.358 2.968 0.35 1.32-0.005 2.634-0.174 3.913-0.503 1.456-0.364 2.854-0.932 4.153-1.688v-14.875c-1.249 0.679-2.578 1.197-3.956 1.543-1.344 0.345-2.726 0.522-4.114 0.528zM36.446 5.556l0.54-0.182v11.813l-0.231 0.111c-0.885 0.421-1.809 0.753-2.759 0.991-1.154 0.298-2.34 0.452-3.531 0.457-0.356 0-0.71-0.015-1.052-0.045l-0.37-0.033v-12.148l0.43 0.028c0.313 0.020 0.637 0.030 0.989 0.030 1.512-0.005 3.018-0.199 4.483-0.575 0.503-0.133 1.004-0.282 1.5-0.449z"></path>
      <path d="M19.060 24.647c-0.078-0.080-0.171-0.144-0.275-0.186s-0.214-0.061-0.326-0.057c-0.119-0.002-0.237 0.021-0.347 0.065-0.101 0.040-0.193 0.101-0.27 0.178s-0.135 0.17-0.174 0.271c-0.042 0.107-0.063 0.22-0.062 0.335v2.023c-0.005 0.143 0.022 0.284 0.080 0.415 0.048 0.104 0.117 0.196 0.202 0.271 0.081 0.068 0.176 0.117 0.278 0.144 0.098 0.028 0.2 0.042 0.302 0.042 0.113 0.001 0.224-0.023 0.326-0.070 0.101-0.044 0.193-0.108 0.27-0.187 0.075-0.079 0.135-0.171 0.177-0.271 0.043-0.102 0.065-0.212 0.065-0.323v-0.226h-0.529v0.18c0.002 0.062-0.009 0.123-0.031 0.18-0.017 0.043-0.043 0.082-0.077 0.114-0.033 0.026-0.070 0.046-0.111 0.058-0.036 0.012-0.073 0.018-0.111 0.019-0.047 0.006-0.095-0.002-0.139-0.021s-0.081-0.049-0.11-0.088c-0.050-0.081-0.074-0.176-0.070-0.271v-1.887c-0.003-0.105 0.019-0.208 0.065-0.302 0.027-0.043 0.066-0.077 0.112-0.098s0.097-0.030 0.147-0.024c0.046-0.002 0.091 0.008 0.132 0.028s0.077 0.049 0.104 0.086c0.059 0.078 0.090 0.173 0.088 0.271v0.175h0.524v-0.206c0.001-0.121-0.021-0.241-0.065-0.354-0.039-0.106-0.099-0.203-0.177-0.285z"></path>
      <path d="M22.202 24.624c-0.169-0.142-0.381-0.221-0.602-0.222-0.108 0-0.215 0.020-0.316 0.057-0.103 0.037-0.198 0.093-0.279 0.165-0.088 0.079-0.158 0.175-0.205 0.283-0.053 0.124-0.080 0.257-0.077 0.392v1.941c-0.004 0.137 0.023 0.272 0.077 0.397 0.048 0.104 0.118 0.197 0.205 0.271 0.081 0.075 0.176 0.133 0.279 0.171 0.101 0.037 0.208 0.056 0.316 0.057s0.215-0.020 0.316-0.057c0.105-0.038 0.202-0.096 0.286-0.171 0.084-0.076 0.152-0.168 0.2-0.271 0.054-0.125 0.081-0.261 0.077-0.397v-1.941c0.003-0.135-0.024-0.268-0.077-0.392-0.047-0.107-0.115-0.203-0.2-0.283zM21.955 27.24c0.004 0.052-0.003 0.104-0.021 0.152s-0.047 0.092-0.084 0.128c-0.070 0.059-0.158 0.091-0.249 0.091s-0.179-0.032-0.249-0.091c-0.037-0.036-0.066-0.080-0.084-0.128s-0.025-0.101-0.021-0.152v-1.941c-0.004-0.052 0.003-0.104 0.021-0.152s0.047-0.092 0.084-0.128c0.070-0.059 0.158-0.091 0.249-0.091s0.179 0.032 0.249 0.091c0.037 0.036 0.066 0.080 0.084 0.128s0.025 0.101 0.021 0.152v1.941z"></path>
      <path d="M26.329 28.106v-3.674h-0.509l-0.668 1.945h-0.009l-0.673-1.945h-0.503v3.674h0.525v-2.235h0.009l0.514 1.58h0.262l0.518-1.58h0.009v2.235h0.525z"></path>
      <path d="M29.311 24.69c-0.081-0.091-0.183-0.16-0.297-0.201-0.123-0.040-0.251-0.059-0.38-0.057h-0.78v3.674h0.523v-1.435h0.27c0.163 0.007 0.326-0.027 0.472-0.1 0.119-0.066 0.218-0.163 0.287-0.281 0.061-0.098 0.101-0.206 0.12-0.32 0.021-0.138 0.030-0.278 0.028-0.418 0.005-0.176-0.012-0.353-0.051-0.525-0.035-0.127-0.101-0.243-0.193-0.338zM29.041 25.81c-0.002 0.067-0.019 0.132-0.049 0.191-0.030 0.056-0.077 0.102-0.135 0.129-0.078 0.035-0.162 0.050-0.247 0.046h-0.239v-1.249h0.27c0.081-0.004 0.162 0.012 0.236 0.046 0.054 0.031 0.097 0.079 0.123 0.136 0.029 0.065 0.044 0.134 0.046 0.205 0 0.077 0 0.159 0 0.244s0.005 0.174 0 0.252h-0.005z"></path>
      <path d="M31.791 24.432h-0.429l-0.809 3.674h0.523l0.154-0.789h0.714l0.154 0.789h0.523l-0.83-3.674zM31.308 26.817l0.258-1.332h0.009l0.256 1.332h-0.523z"></path>
      <path d="M35.173 26.646h-0.009l-0.791-2.213h-0.503v3.674h0.523v-2.209h0.011l0.8 2.209h0.492v-3.674h-0.523v2.213z"></path>
      <path d="M38.372 24.432l-0.421 1.461h-0.011l-0.421-1.461h-0.554l0.719 2.121v1.553h0.524v-1.553l0.719-2.121h-0.554z"></path>
      <path d="M17.6 29.144h0.252v0.708h0.171v-0.708h0.251v-0.145h-0.675v0.145z"></path>
      <path d="M19.721 28.999l-0.331 0.853h0.182l0.070-0.194h0.34l0.073 0.194h0.186l-0.339-0.853h-0.182zM19.694 29.514l0.116-0.316 0.116 0.316h-0.232z"></path>
      <path d="M21.818 29.537h0.197v0.11c-0.058 0.046-0.129 0.071-0.202 0.072-0.034 0.002-0.069-0.004-0.1-0.019s-0.059-0.036-0.081-0.063c-0.045-0.065-0.068-0.143-0.063-0.222 0-0.19 0.082-0.285 0.246-0.285 0.043-0.004 0.086 0.007 0.121 0.032s0.061 0.062 0.072 0.104l0.169-0.033c-0.036-0.167-0.156-0.251-0.362-0.251-0.11-0.003-0.216 0.036-0.298 0.11-0.043 0.042-0.076 0.094-0.097 0.15s-0.030 0.117-0.025 0.178c-0.005 0.117 0.034 0.231 0.109 0.32 0.042 0.043 0.092 0.077 0.148 0.098s0.116 0.031 0.176 0.027c0.134 0.004 0.263-0.045 0.362-0.136v-0.336h-0.37v0.144z"></path>
      <path d="M23.959 28.999h-0.173v0.853h0.598v-0.145h-0.425v-0.708z"></path>
      <path d="M25.769 28.999h-0.173v0.853h0.173v-0.853z"></path>
      <path d="M27.539 29.568l-0.349-0.57h-0.167v0.853h0.161v-0.557l0.343 0.557h0.171v-0.853h-0.158v0.57z"></path>
      <path d="M29.14 29.476h0.425v-0.145h-0.425v-0.187h0.457v-0.145h-0.63v0.853h0.648v-0.145h-0.475v-0.231z"></path>
      <path d="M33.020 29.335h-0.336v-0.336h-0.171v0.853h0.171v-0.373h0.336v0.373h0.171v-0.853h-0.171v0.336z"></path>
      <path d="M34.629 29.476h0.426v-0.145h-0.426v-0.187h0.459v-0.145h-0.63v0.853h0.646v-0.145h-0.475v-0.231z"></path>
      <path d="M36.813 29.476c0.148-0.023 0.224-0.102 0.224-0.237 0.004-0.036-0.001-0.073-0.016-0.106s-0.038-0.062-0.068-0.083c-0.077-0.039-0.163-0.056-0.25-0.050h-0.362v0.853h0.171v-0.357h0.034c0.037-0.002 0.073 0.004 0.107 0.019 0.025 0.015 0.046 0.037 0.061 0.062l0.186 0.271h0.205l-0.104-0.167c-0.046-0.082-0.111-0.153-0.189-0.205zM36.64 29.358h-0.127v-0.214h0.135c0.059-0.005 0.118 0.002 0.174 0.020 0.012 0.011 0.022 0.025 0.029 0.040s0.010 0.032 0.009 0.049c-0.001 0.017-0.005 0.033-0.013 0.048s-0.019 0.027-0.032 0.037c-0.056 0.017-0.115 0.024-0.174 0.020z"></path>
      <path d="M38.458 29.476h0.425v-0.145h-0.425v-0.187h0.459v-0.145h-0.631v0.853h0.648v-0.145h-0.475v-0.231z"></path>
    </symbol>
    <symbol id="client-1" viewBox="0 0 57 32">
      <path d="M19.733 2.667l3.897 3.69h10.872v10.292l3.897 3.69v-17.671h-18.667z"></path>
      <path d="M16.533 6.201v17.166h18.133v-6.824l-10.921-10.339-7.212-0.004zM31.212 20.856h-11.81v-11.545h0.835v10.764h10.975v0.782z"></path>
      <path d="M21.755 26.551l0.436-0.898h0.365l-0.635 1.198v0.698h-0.331v-0.698l-0.637-1.198h0.366l0.436 0.898zM23.628 27.107h-0.734l-0.154 0.441h-0.342l0.716-1.896h0.296l0.717 1.896h-0.344l-0.155-0.441zM22.986 26.842h0.549l-0.275-0.786-0.275 0.786zM24.926 27.037c0-0.088 0.024-0.168 0.072-0.241s0.142-0.161 0.283-0.262c-0.074-0.093-0.125-0.172-0.155-0.237s-0.043-0.128-0.043-0.189c0-0.148 0.045-0.266 0.135-0.352s0.212-0.13 0.365-0.13c0.138 0 0.251 0.041 0.339 0.122s0.133 0.181 0.133 0.301c0 0.079-0.020 0.152-0.060 0.219s-0.105 0.132-0.197 0.198l-0.129 0.094 0.366 0.432c0.053-0.104 0.079-0.22 0.079-0.348h0.275c0 0.233-0.055 0.425-0.164 0.574l0.279 0.329h-0.367l-0.107-0.126c-0.135 0.102-0.297 0.152-0.484 0.152s-0.338-0.049-0.451-0.148c-0.112-0.1-0.168-0.23-0.168-0.389zM25.553 27.322c0.107 0 0.207-0.036 0.299-0.107l-0.414-0.488-0.040 0.029c-0.104 0.079-0.156 0.169-0.156 0.271 0 0.088 0.028 0.159 0.085 0.214s0.132 0.082 0.227 0.082zM25.379 26.101c0 0.073 0.045 0.164 0.134 0.275l0.145-0.099 0.040-0.033c0.054-0.048 0.081-0.109 0.081-0.184 0-0.049-0.019-0.092-0.056-0.126s-0.085-0.053-0.142-0.053c-0.062 0-0.111 0.021-0.147 0.063s-0.055 0.094-0.055 0.158zM28.823 26.932c-0.019 0.202-0.094 0.36-0.224 0.474s-0.303 0.169-0.52 0.169c-0.151 0-0.284-0.036-0.4-0.107s-0.203-0.174-0.266-0.306-0.095-0.285-0.098-0.46v-0.177c0-0.179 0.032-0.336 0.095-0.473s0.154-0.241 0.272-0.315c0.119-0.074 0.256-0.111 0.411-0.111 0.209 0 0.378 0.057 0.505 0.171s0.202 0.274 0.223 0.482h-0.328c-0.016-0.136-0.056-0.234-0.12-0.294s-0.157-0.091-0.28-0.091c-0.143 0-0.253 0.053-0.331 0.158s-0.115 0.257-0.117 0.46v0.168c0 0.205 0.036 0.361 0.109 0.469s0.181 0.161 0.323 0.161c0.129 0 0.227-0.029 0.292-0.087s0.106-0.155 0.124-0.29h0.328zM30.632 26.65c0 0.186-0.032 0.349-0.096 0.49s-0.156 0.247-0.276 0.323c-0.119 0.075-0.256 0.112-0.411 0.112-0.154 0-0.291-0.037-0.411-0.112s-0.213-0.183-0.279-0.322c-0.065-0.139-0.098-0.299-0.099-0.48v-0.107c0-0.185 0.033-0.348 0.098-0.49s0.158-0.25 0.277-0.324c0.12-0.076 0.257-0.113 0.411-0.113s0.291 0.037 0.41 0.112c0.12 0.074 0.212 0.181 0.277 0.32s0.098 0.301 0.099 0.486v0.105zM30.302 26.551c0-0.21-0.040-0.371-0.12-0.483s-0.191-0.168-0.337-0.168c-0.142 0-0.254 0.056-0.335 0.168s-0.121 0.269-0.122 0.473v0.109c0 0.208 0.040 0.369 0.121 0.483s0.194 0.171 0.339 0.171c0.146 0 0.258-0.056 0.336-0.167s0.119-0.273 0.119-0.487v-0.099z"></path>
    </symbol>
    <symbol id="astronaut" viewBox="0 0 32 32">
      <path fill="#2196f3" d="M31.974 4.524a.535.535 0 0 0-.427-.362h-.003l-1.911-.278-.855-1.731c-.179-.365-.777-.365-.956 0l-.855 1.731-1.911.278a.534.534 0 0 0-.296.91l1.383 1.348-.326 1.903a.532.532 0 0 0 .774.562l1.709-.899 1.709.899a.534.534 0 0 0 .773-.565v.003l-.326-1.903 1.383-1.348a.535.535 0 0 0 .134-.55l.001.004zm-2.463 1.327a.53.53 0 0 0-.153.472l.191 1.114-1-.526a.525.525 0 0 0-.501.001l.003-.001-1 .526.191-1.114a.53.53 0 0 0-.152-.472l-.811-.79 1.119-.162a.532.532 0 0 0 .402-.292l.5-1.013.5 1.013a.532.532 0 0 0 .402.292l1.119.162-.809.79zm-3.377 14.671h-1.067v1.067h1.067v-1.067zm0 2.134h-1.067v1.066h1.067v-1.066zm1.066-1.067h-1.067v1.067H27.2v-1.067zm-2.133 0H24v1.067h1.067v-1.067zm-2.667 4.8h-1.067v1.067H22.4v-1.067zm0 2.134h-1.067v1.067H22.4v-1.067zm1.067-1.067H22.4v1.067h1.067v-1.067zm-2.133 0h-1.067v1.067h1.067v-1.067zM16 24.256h-1.066v1.067H16v-1.067zm0 2.133h-1.066v1.067H16v-1.067zm1.067-1.067H16v1.067h1.067v-1.067zm-2.133 0h-1.067v1.067h1.067v-1.067zm-9.067-19.2H4.801v1.066h1.066V6.122zm0 2.134H4.801v1.066h1.066V8.256zm1.066-1.067H5.866v1.067h1.066V7.189zm-2.133 0H3.733v1.067H4.8V7.189z" style="fill:var(--color3, #2196f3)"/>
      <path fill="#212121" d="M24.715 14.16a1.774 1.774 0 0 0-1.179-.703l-.009-.001a1.769 1.769 0 0 0-1.344.355l.004-.003-1.253.96-1.898 1.417-1.358-.541c2.421-1.086 4.113-3.508 4.113-6.32 0-3.823-3.122-6.934-6.961-6.934S7.869 5.5 7.869 9.324c0 1.386.415 2.674 1.12 3.759l-2.768-.024c-.009 0-.016.005-.023.005a.511.511 0 0 0-.159.033l.004-.001c-.013.005-.026.007-.038.013-.006.003-.013.003-.019.006l-3.233 1.596-.001.001-1.893.91a.5.5 0 0 0-.065.036l.001-.001a1.782 1.782 0 0 0-.594 2.306l-.005-.01c.22.424.592.742 1.043.885l.013.003a1.772 1.772 0 0 0 1.388-.133l-.009.005 1.388-.738 2.264-1.169 1.357-.008-5.442 5.415-.001.001-1.339 1.333a1.643 1.643 0 0 0-.491 1.173v.005a1.668 1.668 0 0 0 1.667 1.664h.002a1.67 1.67 0 0 0 1.18-.485l1.314-1.309 1.741-1.3.901.897L4.07 27.28a1.643 1.643 0 0 0-.491 1.173v.004a1.662 1.662 0 0 0 1.666 1.664h.003a1.67 1.67 0 0 0 1.18-.485l4.488-4.472c.007-.006.016-.009.022-.016l5.166-5.658 3.471.494a.474.474 0 0 0 .262-.032c.017-.006.032-.015.049-.023.019-.01.039-.015.058-.027l3.213-2.133c.012-.008.018-.021.029-.03.013-.01.029-.014.041-.026l1.271-1.191c.348-.326.564-.787.564-1.3 0-.4-.132-.769-.355-1.066l.003.005zM2.13 17.77a.706.706 0 0 1-.564.05l.005.001a.717.717 0 0 1-.215-1.258l.002-.001 1.314-.632.316.924.133.389-.992.527zm3.497-1.828-1.548.8-.255-.746-.184-.537 2.027-1.001-.04 1.484zm15.1-6.62c0 .918-.219 1.785-.599 2.56l-4.181-1.899a1.865 1.865 0 0 0-.782-1.384l-.006-.004 1.464-4.861c2.377.757 4.104 2.975 4.104 5.588zm-11.789 0c0-3.235 2.644-5.867 5.894-5.867.253 0 .5.022.745.053l-1.432 4.753c-.019 0-.037-.006-.057-.006h-.001a1.872 1.872 0 0 0-1.872 1.867 1.873 1.873 0 0 0 1.872 1.867h.001c.695 0 1.295-.383 1.618-.944l3.863 1.755a5.891 5.891 0 0 1-4.737 2.39c-3.25 0-5.894-2.632-5.894-5.867zm5.957.8c0 .441-.362.8-.806.8h-.001a.804.804 0 0 1-.804-.8c0-.441.361-.8.806-.8s.806.359.806.8zM2.464 25.146a.606.606 0 0 1-.855.001.591.591 0 0 1 0-.844l.962-.959.852.848-.959.954zm3.214 3.734a.606.606 0 0 1-.855.001.591.591 0 0 1 0-.844l.963-.959.852.848-.96.955zm3.482-3.469-.001.001-1.765 1.76-.852-.848 1.765-1.757a.527.527 0 0 0 .09-.136c.007-.014.02-.026.026-.04.016-.041.019-.085.026-.128.003-.025.014-.048.014-.073 0-.035-.013-.07-.02-.105-.006-.032-.006-.064-.019-.096a.536.536 0 0 0-.092-.138c-.01-.012-.014-.026-.025-.038h-.001l-.001-.002-1.607-1.6c-.017-.017-.039-.024-.058-.038a.491.491 0 0 0-.084-.056l-.003-.001a.527.527 0 0 0-.09-.031l-.003-.001a.502.502 0 0 0-.101-.02h-.025a.603.603 0 0 0-.075.005h.003c-.036.005-.069.009-.104.021s-.064.027-.094.045c-.02.011-.043.015-.061.029l-1.774 1.324-.901-.897 2.399-2.386 4.36 4.289-.928.919zm6.819-7.017c-.016-.002-.03.004-.046.003l-.027-.001a.562.562 0 0 0-.092.008h.003a.484.484 0 0 0-.187.07l.002-.001a.492.492 0 0 0-.083.061c-.013.011-.028.016-.04.029l-4.698 5.146-4.328-4.256 2.833-2.818a.535.535 0 0 0-.378-.911h-.002l-2.219.013.028-1.607 3.104.027a6.928 6.928 0 0 0 4.978 2.101h.003c.438 0 .864-.046 1.28-.122.04.032.08.064.129.085l2.41.96.152.758.178.886-3.003-.427zm4.041.178-.313-1.558 1.446-1.08.946 1.257-2.08 1.381zm3.753-2.831-.837.785-.931-1.236.831-.637a.735.735 0 0 1 .543-.143.718.718 0 0 1 .621.71.71.71 0 0 1-.226.521z" style="fill:var(--color4, #212121)"/>
      <path fill="#212121" d="m13.602 18.544-2.143-2.134a.53.53 0 0 0-.752 0l-2.143 2.133a.535.535 0 0 0 0 .756l2.142 2.134a.53.53 0 0 0 .752 0l2.143-2.134a.532.532 0 0 0 0-.756zm-2.519 1.759-1.387-1.381 1.386-1.381 1.387 1.381-1.387 1.381zm6.081-15.232-.258 1.036c.071.018 1.738.452 1.738 2.149h1.067c0-2.017-1.666-2.965-2.547-3.184zm2.547 4.251h-1.067v1.066h1.067V9.322z" style="fill:var(--color4, #212121)"/>
    </symbol>
    <symbol id="antenna" viewBox="0 0 32 32">
      <path fill="#212121" d="m30.773 22.098-8.443-8.505.937-4.616c.225.09.485.144.758.146h.033a2.16 2.16 0 1 0-2.029-1.42l-.005-.015-4.96.606L8.973.161a.53.53 0 0 0-.376-.16.536.536 0 0 0-.373.155L6.712 1.66a.535.535 0 0 0 0 .754l.814.825C6.383 5.301 5.71 7.761 5.71 10.378c0 4.106 1.656 7.824 4.336 10.525l-.001-.001a.49.49 0 0 0 .146.097 2.986 2.986 0 0 0-.052.546v6.188h-6.4a2.669 2.669 0 0 0-2.667 2.666v1.067c0 .295.239.534.534.534H26.14a.534.534 0 0 0 .533-.534v-1.067a2.67 2.67 0 0 0-2.666-2.666h-6.4v-2.742a14.784 14.784 0 0 0 10.166-1.502l-.077.039.818.823a.534.534 0 0 0 .376.16.536.536 0 0 0 .373-.155l1.512-1.504a.535.535 0 0 0 0-.754zM23.28 6.233a1.067 1.067 0 1 1 .752 1.822h-.004a1.066 1.066 0 0 1-.747-1.822h-.002zm-1.256 3.504-.598 2.946-1.175-1.183 1.774-1.763zm-.605-.902-1.92 1.909-1.486-1.493 3.406-.416zM24.004 28.8a1.6 1.6 0 0 1 1.6 1.6v.534H2.138V30.4a1.6 1.6 0 0 1 1.6-1.6h20.267zm-7.466-2.134v1.067h-5.334v-1.067h5.334zM11.204 25.6v-4.053c0-1.294 1.196-2.346 2.667-2.346s2.667 1.053 2.667 2.346V25.6h-5.334zm6.4-1.696v-2.357c0-1.882-1.675-3.413-3.733-3.413h-.058c-1.353 0-2.54.707-3.213 1.771l-.009.016a13.817 13.817 0 0 1-3.812-9.55c0-2.314.567-4.496 1.569-6.414l-.036.077 18.602 18.709c-1.823.947-3.979 1.502-6.266 1.502-1.079 0-2.128-.124-3.136-.357l.093.018zm11.289-.684L7.836 2.039l.754-.752 7.935 7.98c.004 0 .006.007.01.01l13.114 13.191-.757.752z" style="fill:var(--color4, #212121)"/>
      <path fill="#2196f3" d="M13.876 20.267h-.007a1.6 1.6 0 0 0-.003 3.2h.007a1.6 1.6 0 0 0 .002-3.2zm.373 1.978a.534.534 0 1 1-.378-.912.533.533 0 0 1 .374.911h.005z" style="fill:var(--color3, #2196f3)"/>
    </symbol>
    <symbol id="twitter" viewBox="0 0 32 32">
      <path d="M32 6.078c-1.1.493-2.376.857-3.713 1.028l-.068.007a6.556 6.556 0 0 0 2.873-3.579l.013-.046a12.88 12.88 0 0 1-4.076 1.573l-.084.014A6.558 6.558 0 0 0 15.6 9.557v.004c0 .52.043 1.021.152 1.496-5.454-.266-10.28-2.88-13.522-6.861a6.524 6.524 0 0 0-.902 3.313v.001a6.57 6.57 0 0 0 2.914 5.451 6.453 6.453 0 0 1-2.994-.823l.033.017v.072a6.592 6.592 0 0 0 5.213 6.44l.043.008a6.403 6.403 0 0 1-1.662.215h-.061.003c-.419 0-.843-.024-1.242-.112.85 2.598 3.261 4.509 6.13 4.57a13.093 13.093 0 0 1-8.122 2.8H1.57h.001-.062c-.531 0-1.055-.034-1.569-.099l.061.006c2.826 1.846 6.287 2.944 10.004 2.944h.063-.003c12.072 0 18.672-10 18.672-18.669 0-.288-.01-.57-.024-.848a13.203 13.203 0 0 0 3.258-3.355l.03-.047z"/>
    </symbol>
    <symbol id="user" viewBox="0 0 32 32">
      <path d="M16 16c2.947 0 5.333-2.387 5.333-5.333s-2.387-5.333-5.333-5.333c-2.947 0-5.333 2.387-5.333 5.333s2.387 5.333 5.333 5.333zM16 18.667c-3.56 0-10.667 1.787-10.667 5.333v1.333c0 0.733 0.6 1.333 1.333 1.333h18.667c0.733 0 1.333-0.6 1.333-1.333v-1.333c0-3.547-7.107-5.333-10.667-5.333z"></path>
    </symbol>
    <symbol id="phone" viewBox="0 0 32 32">
      <path d="M24.882 19.773l-3.268-0.373c-0.785-0.090-1.557 0.18-2.11 0.733l-2.367 2.367c-3.641-1.853-6.626-4.825-8.478-8.478l2.38-2.38c0.553-0.553 0.823-1.325 0.733-2.11l-0.373-3.242c-0.154-1.299-1.248-2.277-2.56-2.277h-2.226c-1.454 0-2.663 1.209-2.573 2.663 0.682 10.987 9.469 19.761 20.443 20.443 1.454 0.090 2.663-1.119 2.663-2.573v-2.226c0.013-1.3-0.965-2.393-2.264-2.547v0z"></path>
    </symbol>
    <symbol id="email" viewBox="0 0 32 32">
      <path d="M26.667 5.333h-21.333c-1.467 0-2.653 1.2-2.653 2.667l-0.013 16c0 1.467 1.2 2.667 2.667 2.667h21.333c1.467 0 2.667-1.2 2.667-2.667v-16c0-1.467-1.2-2.667-2.667-2.667zM26.133 11l-9.427 5.893c-0.427 0.267-0.987 0.267-1.413 0l-9.427-5.893c-0.333-0.213-0.533-0.573-0.533-0.96 0-0.893 0.973-1.427 1.733-0.96l8.933 5.587 8.933-5.587c0.76-0.467 1.733 0.067 1.733 0.96 0 0.387-0.2 0.747-0.533 0.96z"></path>
    </symbol>
    <symbol id="send" viewBox="0 0 32 32">
      <path d="M32 0l-32 18 10.227 3.788 15.773-14.788-11.998 16.186 0.010 0.004-0.012-0.004v8.814l5.735-6.691 7.265 2.691 5-28z"></path>
    </symbol>
    <symbol id="confirm" viewBox="0 0 42 32">
      <path d="M6.263 15.205l-0.22-0.21-3.307 3.132 11.651 11.114 24.477-23.351-3.285-3.134-21.192 20.197-8.124-7.75z"></path>
    </symbol>
    <symbol id="menu" viewBox="0 0 32 32">
      <path d="M6.4 11.733v-2.133h19.2v2.133h-19.2zM6.4 17.067h19.2v-2.133h-19.2v2.133zM6.4 22.4h19.2v-2.133h-19.2v2.133z"></path>
    </symbol>
    <symbol id="menu-close" viewBox="0 0 32 32">
      <path d="M23.733 10.304l-1.504-1.504-5.963 5.963-5.963-5.963-1.504 1.504 5.963 5.963-5.963 5.963 1.504 1.504 5.963-5.963 5.963 5.963 1.504-1.504-5.963-5.963 5.963-5.963z"></path>
    </symbol>
  </defs>
</svg>